<?xml version="1.0" standalone="no"?>
<!DOCTYPE svg PUBLIC "-//W3C//DTD SVG 20010904//EN"
 "http://www.w3.org/TR/2001/REC-SVG-20010904/DTD/svg10.dtd">
<svg version="1.0" xmlns="http://www.w3.org/2000/svg"
 width="100.000000pt" height="100.000000pt" viewBox="0 0 100.000000 100.000000"
 preserveAspectRatio="xMidYMid meet">

<g transform="translate(0.000000,100.000000) scale(0.100000,-0.100000)"
fill="#000000" stroke="none">
<path d="M347 764 c-4 -4 -7 -16 -7 -27 0 -11 -8 -26 -17 -34 -16 -13 -16 -13
5 -3 14 7 22 20 22 35 0 14 5 25 10 25 6 0 10 -11 10 -25 0 -19 9 -29 35 -42
19 -9 35 -20 35 -25 0 -10 2 -10 -38 1 -30 9 -32 8 -32 -15 0 -13 5 -24 10
-24 6 0 10 -3 10 -7 0 -5 -13 -8 -30 -8 -16 0 -30 3 -30 8 0 4 5 7 10 7 6 0
10 11 10 24 0 20 -4 22 -27 17 -26 -5 -26 -6 -5 -9 23 -4 29 -16 12 -27 -24
-15 -9 -32 30 -32 39 0 54 17 30 32 -24 15 -9 27 25 21 48 -9 48 18 1 41 -24
11 -36 24 -38 41 -3 26 -18 38 -31 26z"/>
<path d="M445 743 c-49 -12 -30 -20 38 -15 58 3 76 1 89 -12 10 -10 18 -12 20
-5 7 20 91 -55 116 -103 41 -80 25 -231 -27 -245 -11 -3 -18 -10 -16 -16 6
-17 -45 -51 -72 -49 -33 3 -78 27 -124 69 -21 19 -39 31 -39 26 0 -17 65 -72
108 -91 32 -14 39 -21 27 -26 -26 -10 -109 -7 -144 5 -27 9 -31 16 -33 47 l-1
37 -4 -33 c-4 -28 -6 -31 -24 -21 -20 10 -79 85 -79 101 0 4 10 8 23 9 21 1
21 1 -3 8 -28 8 -39 44 -32 104 5 40 15 47 31 20 6 -10 11 -13 11 -7 0 6 -7
17 -15 24 -11 9 -12 17 -4 32 6 10 9 24 7 30 -2 6 -13 -6 -23 -28 -13 -26 -19
-61 -20 -104 0 -121 74 -215 191 -241 49 -11 66 -10 123 4 36 10 76 17 88 17
53 0 95 43 80 82 -3 7 -6 1 -6 -14 -1 -30 -33 -58 -68 -58 -21 0 -20 3 16 40
94 97 92 245 -3 344 -59 60 -151 88 -231 69z"/>
<path d="M535 680 c-26 -28 -15 -31 12 -3 12 13 19 23 14 23 -4 0 -16 -9 -26
-20z"/>
<path d="M270 665 c0 -8 4 -15 10 -15 5 0 7 7 4 15 -4 8 -8 15 -10 15 -2 0 -4
-7 -4 -15z"/>
<path d="M472 590 c0 -14 2 -19 5 -12 2 6 2 18 0 25 -3 6 -5 1 -5 -13z"/>
<path d="M354 563 c3 -10 8 -30 12 -45 3 -16 9 -28 13 -28 4 0 3 20 -3 45 -6
25 -14 45 -19 45 -5 0 -6 -8 -3 -17z"/>
<path d="M515 541 c-11 -18 15 -22 42 -6 26 15 16 14 -24 -2 -11 -4 -14 -3 -9
5 4 7 5 12 2 12 -3 0 -7 -4 -11 -9z"/>
<path d="M297 511 c-4 -17 -3 -21 5 -13 5 5 8 16 6 23 -3 8 -7 3 -11 -10z"/>
<path d="M554 488 l-19 -23 25 20 c14 11 27 21 29 22 2 2 0 3 -6 3 -5 0 -18
-10 -29 -22z"/>
<path d="M390 451 c11 -22 30 -37 30 -24 -1 11 -26 43 -34 43 -4 0 -2 -9 4
-19z"/>
<path d="M511 434 c0 -11 3 -14 6 -6 3 7 2 16 -1 19 -3 4 -6 -2 -5 -13z"/>
<path d="M542 375 c15 -16 20 -17 30 -6 11 11 10 13 0 7 -7 -4 -21 -2 -30 5
-15 12 -15 11 0 -6z"/>
</g>
</svg>
