<svg height="512" viewBox="0 0 128 128" width="512" xmlns="http://www.w3.org/2000/svg"><g><g><circle cx="64" cy="64" fill="#3ea7fb" r="57.5"/><path d="m121.5 64a57.521 57.521 0 0 1 -77.17 54.04c.14-5.71 1.61-10.915 16.09-15.74 5.645-1.881 5.88-9.99 5.94-15.95q.075-6.96.15-13.94c.03-2.93.16-6.14 2.09-8.35 2.52-2.89 7.06-2.84 10.72-1.72s7.14 3.1 10.97 3.32c5.68.32 10.75-3.22 16.04-5.31a49.092 49.092 0 0 1 14.79-2.94 57.314 57.314 0 0 1 .38 6.59z" fill="#95d70b"/><path d="m44.75 18.97c.19 2.34.68 4.87-.53 6.87-1.13 1.86-3.36 2.65-5.37 3.48-3.45 1.43-6.84 3.5-8.64 6.77-1.49 2.72-1.71 5.93-2.58 8.91s-2.81 6.05-5.87 6.57c-4.58.78-7.93-4.39-12.25-5.98a57.609 57.609 0 0 1 36.43-36.19 24.092 24.092 0 0 0 -1.19 9.57z" fill="#95d70b"/><g><path d="m92.861 26.832-20.276-7.7-5.055 4.461 12.281 10.745z" fill="#dddde3"/><path d="m58.733 55.418 57.621-29.068a3.488 3.488 0 0 0 1.568-4.633 3.485 3.485 0 0 0 -3.311-1.965l-4.091.2a11.173 11.173 0 0 0 -11.386.095l-44.6 26.915-4.091-1.962a6 6 0 0 0 -6.254.644l-1.189.908 9.057 8.005a6 6 0 0 0 6.676.861z" fill="#ededf9"/><path d="m96.035 30.053-2.157 25.213-6.211 2.622-5.543-19.988z" fill="#dddde3"/></g></g><g fill="#061720"><path d="m112.656 30.173 4.484-2.261a5.237 5.237 0 0 0 -2.36-9.912l-3.849.178a13.119 13.119 0 0 0 -10.287-.722 59.23 59.23 0 0 0 -81.071 7.338 1.75 1.75 0 1 0 2.627 2.317 55.8 55.8 0 0 1 21.209-14.906 26.014 26.014 0 0 0 -.4 6.907c.028.35.063.7.1 1.06.181 1.826.351 3.551-.38 4.76s-2.354 1.878-4.06 2.573l-.484.2c-4.666 1.935-7.775 4.4-9.5 7.546a22.556 22.556 0 0 0 -2.035 6.319c-.218 1.027-.424 2-.7 2.939-.33 1.129-1.627 4.85-4.484 5.336-2.068.349-3.991-1.092-6.217-2.766a28.244 28.244 0 0 0 -3.557-2.379 55.388 55.388 0 0 1 4.827-9.931 1.75 1.75 0 0 0 -2.979-1.838 59.251 59.251 0 1 0 99.116-2.754zm-48.656 89.577a55.484 55.484 0 0 1 -17.872-2.956c.23-3.868 1.672-8.444 14.846-12.834a8.447 8.447 0 0 0 4.5-3.568 1.75 1.75 0 0 0 -2.946-1.892 4.961 4.961 0 0 1 -2.662 2.142c-12.5 4.166-16.265 8.882-17.095 14.9a55.643 55.643 0 0 1 -10.571-5.794 27.157 27.157 0 0 1 -1.317-2.541 1.751 1.751 0 0 0 -2.314-.88 1.7 1.7 0 0 0 -.443.3 55.69 55.69 0 0 1 -17.556-58.552c.849.517 1.7 1.14 2.575 1.8 2.211 1.665 4.683 3.525 7.677 3.525a7.267 7.267 0 0 0 1.231-.1c3.28-.557 5.993-3.475 7.257-7.8.311-1.068.542-2.148.763-3.192a19.636 19.636 0 0 1 1.67-5.365c1.33-2.418 3.874-4.379 7.774-6l.467-.192c2.058-.838 4.39-1.789 5.733-4s1.089-4.71.87-6.918c-.032-.336-.066-.67-.092-.994a22.525 22.525 0 0 1 .837-8.015 55.615 55.615 0 0 1 49.833 8.372l-7.527 4.542-16.427-6.244a1.75 1.75 0 0 0 -1.778.323l-5.06 4.46a1.75 1.75 0 0 0 0 2.63l8.7 7.612-6.524 3.937a1.75 1.75 0 1 0 1.808 3l29.672-17.9a9.585 9.585 0 0 1 9.61-.087 1.736 1.736 0 0 0 .964.235l4-.2h.17a1.719 1.719 0 0 1 1.566.984 1.745 1.745 0 0 1 -.784 2.3l-18.1 9.128.317-3.713a1.749 1.749 0 0 0 -2.6-1.674l-13.907 7.846a1.751 1.751 0 0 0 -.828 1.993l1.008 3.632-23.5 11.855a4.241 4.241 0 0 1 -4.726-.607l-7.431-6.57a4.214 4.214 0 0 1 3.9-.1l4.089 1.96a1.746 1.746 0 0 0 1.661-.08l7.225-4.358a1.75 1.75 0 0 0 -1.809-3l-6.419 3.874-3.23-1.548a7.687 7.687 0 0 0 -8.077.824l-1.191.909a1.75 1.75 0 0 0 -.1 2.7l9.063 8.015a7.735 7.735 0 0 0 8.616 1.108l22.884-11.542 3.58 12.916a1.751 1.751 0 0 0 2.368 1.144l6.211-2.622a1.75 1.75 0 0 0 1.062-1.463l1.489-17.4 12.384-6.245a55.168 55.168 0 0 1 9.655 24.047 47.149 47.149 0 0 0 -13.462 2.908c-1.5.591-2.973 1.292-4.4 1.971-3.71 1.762-7.232 3.418-10.895 3.219a23.035 23.035 0 0 1 -6.881-1.915c-1.188-.463-2.415-.941-3.679-1.33-5.237-1.6-9.929-.764-12.551 2.242-2.452 2.809-2.494 6.825-2.521 9.482l-.116 10.84a1.749 1.749 0 0 0 1.731 1.766h.019a1.751 1.751 0 0 0 1.75-1.731l.116-10.841c.029-2.836.177-5.522 1.659-7.218 1.988-2.28 5.894-2.114 8.887-1.2 1.138.351 2.254.785 3.434 1.246a25.99 25.99 0 0 0 7.951 2.149c4.577.258 8.654-1.678 12.6-3.552 1.439-.684 2.8-1.33 4.186-1.877a44 44 0 0 1 12.579-2.685q.194 2.337.2 4.707a55.813 55.813 0 0 1 -55.756 55.752zm14.221-89.129-8.039-7.036 2.773-2.444 12.875 4.889zm5.955 8.13 9.833-5.546-1.784 20.859-3.4 1.437z"/><path d="m66.35 88.559a1.751 1.751 0 0 0 -1.85 1.648 32.776 32.776 0 0 1 -.383 3.632 1.75 1.75 0 0 0 1.434 2.017 1.725 1.725 0 0 0 .294.025 1.75 1.75 0 0 0 1.723-1.458 36.325 36.325 0 0 0 .432-4.023 1.749 1.749 0 0 0 -1.65-1.841z"/><path d="m111.65 49.681a1.751 1.751 0 0 0 3.35-1.011 53.312 53.312 0 0 0 -2.138-5.832 1.75 1.75 0 0 0 -3.211 1.394 49.386 49.386 0 0 1 1.999 5.449z"/><path d="m41.841 56.577a36.343 36.343 0 0 0 -2.621 2.579 1.75 1.75 0 0 0 2.572 2.373 32.614 32.614 0 0 1 2.367-2.329 1.75 1.75 0 1 0 -2.318-2.623z"/><path d="m28.324 94.672c0-.343.006-.687.015-1.03a1.75 1.75 0 1 0 -3.5-.1c-.011.372-.016.745-.017 1.121a36.831 36.831 0 0 0 .575 6.557 1.751 1.751 0 0 0 1.72 1.437 1.694 1.694 0 0 0 .315-.029 1.75 1.75 0 0 0 1.409-2.034 33.263 33.263 0 0 1 -.517-5.922z"/><path d="m36.955 64.671a1.751 1.751 0 0 0 -2.429.476 59.791 59.791 0 0 0 -3.811 6.537 1.75 1.75 0 1 0 3.127 1.57 56.484 56.484 0 0 1 3.589-6.154 1.751 1.751 0 0 0 -.476-2.429z"/><path d="m29.979 77.575a1.75 1.75 0 0 0 -2.233 1.068 53.685 53.685 0 0 0 -2.026 7.316 1.749 1.749 0 0 0 1.372 2.059 1.7 1.7 0 0 0 .345.035 1.749 1.749 0 0 0 1.714-1.407 50.285 50.285 0 0 1 1.9-6.838 1.75 1.75 0 0 0 -1.072-2.233z"/></g></g></svg>